<?xml version="1.0" standalone="no"?>
<!DOCTYPE svg PUBLIC "-//W3C//DTD SVG 20010904//EN"
 "http://www.w3.org/TR/2001/REC-SVG-20010904/DTD/svg10.dtd">
<svg version="1.0" xmlns="http://www.w3.org/2000/svg"
 width="1002.000000pt" height="1002.000000pt" viewBox="0 0 1002.000000 1002.000000"
 preserveAspectRatio="xMidYMid meet">
<metadata>
Created by potrace 1.11, written by Peter Selinger 2001-2013
</metadata>
<g transform="translate(0.000000,1002.000000) scale(0.100000,-0.100000)"
fill="#000000" stroke="none">
<path d="M4810 10013 c-2109 -90 -3922 -1469 -4568 -3473 -420 -1303 -279
-2755 382 -3945 226 -406 466 -730 796 -1075 89 -92 91 -94 86 -60 -14 93 -17
289 -7 413 51 619 327 1152 806 1551 151 126 228 183 540 401 323 224 458 323
585 425 438 354 755 763 948 1225 112 265 171 510 218 895 22 182 26 658 6
795 -40 274 -91 453 -209 734 -9 20 51 9 169 -30 587 -195 1024 -706 1292
-1511 123 -369 203 -769 236 -1177 16 -202 14 -678 -4 -866 -16 -168 -45 -372
-70 -490 -8 -38 -13 -71 -11 -73 6 -6 114 165 154 245 142 283 215 594 286
1223 15 129 29 237 31 239 16 17 99 -97 217 -299 231 -398 382 -891 453 -1480
19 -160 26 -762 11 -960 l-8 -105 27 25 c50 47 146 204 244 405 106 216 185
408 360 885 62 168 115 307 117 309 2 3 9 -2 16 -11 403 -509 632 -1054 723
-1723 13 -97 18 -194 17 -385 0 -245 -10 -363 -49 -570 -6 -34 -3 -31 77 54
656 699 1108 1616 1268 2571 412 2451 -1032 4833 -3395 5598 -556 181 -1170
265 -1744 240z"/>
<path d="M4594 3464 c-17 -21 -58 -82 -91 -135 -128 -204 -295 -393 -669 -754
-733 -708 -815 -798 -914 -997 -74 -150 -92 -229 -97 -428 -4 -125 -1 -188 11
-260 15 -84 86 -348 115 -422 11 -30 35 -42 242 -123 648 -253 1376 -372 2059
-335 469 25 881 100 1304 237 166 53 462 167 480 184 15 13 92 337 120 501 37
218 55 395 62 608 l5 185 -31 -35 c-38 -42 -211 -272 -380 -505 -292 -402
-513 -642 -723 -784 l-48 -33 21 42 c107 209 209 589 254 945 40 318 52 794
27 1080 -21 234 -73 578 -91 598 -3 4 -135 -142 -291 -325 -547 -640 -805
-899 -1143 -1147 -113 -82 -356 -239 -356 -229 0 3 20 67 44 144 164 520 236
968 223 1393 -7 233 -33 408 -84 575 l-18 60 -31 -40z"/>
</g>
</svg>
